<svg version="1.1" id="Layer_1" xmlns="http://www.w3.org/2000/svg" xmlns:xlink="http://www.w3.org/1999/xlink" x="0px" y="0px"
	 width="100%" viewBox="0 0 100 100" enable-background="new 0 0 100 100" xml:space="preserve">
<path fill="#000000" opacity="1.000000" stroke="none" 
	d="
M1.000000,51.000000 
	C1.000000,34.406586 1.000000,17.813171 1.000000,1.000000 
	C17.353571,1.000000 33.708126,1.000000 50.531342,1.468657 
	C50.983215,18.274544 50.966431,34.611771 50.484779,50.972710 
	C33.679947,50.997608 17.339973,50.998802 1.000000,51.000000 
z"/>
<path fill="#FFFFFF" opacity="1.000000" stroke="none" 
	d="
M50.949642,50.949001 
	C50.966431,34.611771 50.983215,18.274544 51.000000,1.468657 
	C67.593414,1.000000 84.186821,1.000000 101.000000,1.000000 
	C101.000000,17.353571 101.000000,33.708126 100.531342,50.531342 
	C83.719978,51.011520 67.377274,51.023037 51.013321,51.013184 
	C50.992065,50.991817 50.949642,50.949001 50.949642,50.949001 
z"/>
<path fill="#FFFFFF" opacity="1.000000" stroke="none" 
	d="
M1.000000,51.468658 
	C17.339973,50.998802 33.679947,50.997608 50.484779,50.972710 
	C50.949642,50.949001 50.992065,50.991817 51.002235,51.479496 
	C51.008270,68.311447 51.004135,84.655724 51.000000,101.000000 
	C34.406586,101.000000 17.813171,101.000000 1.000000,101.000000 
	C1.000000,84.646431 1.000000,68.291870 1.000000,51.468658 
z"/>
<path fill="#D9D9D9" opacity="1.000000" stroke="none" 
	d="
M51.468658,101.000000 
	C51.004135,84.655724 51.008270,68.311447 51.023491,51.500862 
	C67.377274,51.023037 83.719978,51.011520 100.531342,51.000000 
	C101.000000,67.593414 101.000000,84.186829 101.000000,101.000000 
	C84.646431,101.000000 68.291870,101.000000 51.468658,101.000000 
z"/>
</svg>